<svg width="1280" height="720" xmlns="http://www.w3.org/2000/svg" xmlns:xlink="http://www.w3.org/1999/xlink" overflow="hidden"><defs><clipPath id="clip0"><rect x="0" y="0" width="1280" height="720"/></clipPath></defs><g clip-path="url(#clip0)"><rect x="0" y="0" width="1280" height="720" fill="#FFFFFF"/><text font-family="Calibri,Calibri_MSFontService,sans-serif" font-style="italic" font-weight="300" font-size="37" transform="translate(500.1 35)">Ulysses<tspan font-style="normal" font-size="37" x="117.5" y="0">Connected</tspan><tspan font-style="normal" font-weight="700" font-size="21" x="90.4801" y="118">Visual Guide</tspan><tspan font-style="normal" font-weight="400" font-size="16" x="-16.3466" y="150">Each word represents a reference made in </tspan><tspan font-weight="400" font-size="16" x="260.813" y="150">Ulysses</tspan><tspan font-style="normal" font-weight="400" font-size="16" x="143.48" y="181">-</tspan><tspan font-style="normal" font-weight="400" font-size="16" x="10.36" y="212">Larger words were referenced more often</tspan><tspan font-style="normal" font-weight="400" font-size="16" x="143.48" y="242">-</tspan><tspan font-style="normal" font-weight="400" font-size="16" x="-34.5666" y="273">Clusters represent references frequently made together</tspan><tspan font-style="normal" font-weight="400" font-size="16" x="143.48" y="303">-</tspan><tspan font-style="normal" font-weight="700" font-size="21" x="73.4801" y="338">Color Categories</tspan><tspan font-style="normal" font-weight="400" font-size="16" x="-172.027" y="37">A Recontextualization of James Joyce’s </tspan><tspan font-weight="400" font-size="16" x="81.54" y="37">Ulysses </tspan><tspan font-style="normal" font-weight="400" font-size="16" x="132.54" y="37">through the references made throughout the novel. </tspan></text><path d="M322.5 111.5 970.5 111.5" stroke="#000000" stroke-width="0.666667" stroke-miterlimit="8" fill="none" fill-rule="evenodd"/><path d="M380.5 399.167C380.5 394.38 384.38 390.5 389.167 390.5L902.834 390.5C907.62 390.5 911.5 394.38 911.5 399.167L911.5 433.833C911.5 438.62 907.62 442.5 902.834 442.5L389.167 442.5C384.38 442.5 380.5 438.62 380.5 433.833Z" stroke="#E7E6E6" stroke-width="1.33333" stroke-miterlimit="8" fill="#FFB2D9" fill-rule="evenodd"/><text font-family="Calibri,Calibri_MSFontService,sans-serif" font-weight="400" font-size="19" transform="translate(584.04 413)">Dublin &amp; Ireland<tspan font-size="13" x="-171.707" y="18">Landforms and buildings of Dublin / Irish cultural history, customs / Cultural ephemera </tspan></text><path d="M382.5 470.167C382.5 465.38 386.38 461.5 391.167 461.5L904.834 461.5C909.62 461.5 913.5 465.38 913.5 470.167L913.5 504.833C913.5 509.62 909.62 513.5 904.834 513.5L391.167 513.5C386.38 513.5 382.5 509.62 382.5 504.833Z" stroke="#E7E6E6" stroke-width="1.33333" stroke-miterlimit="8" fill="#76ECA5" fill-rule="evenodd"/><text font-family="Calibri,Calibri_MSFontService,sans-serif" font-weight="400" font-size="19" transform="translate(547.883 485)">Literature &amp; Performances<tspan font-size="13" x="-59.3" y="18">Allusions to published texts / Songs and musical references</tspan></text><path d="M382.5 541.167C382.5 536.38 386.38 532.5 391.167 532.5L904.834 532.5C909.62 532.5 913.5 536.38 913.5 541.167L913.5 575.833C913.5 580.62 909.62 584.5 904.834 584.5L391.167 584.5C386.38 584.5 382.5 580.62 382.5 575.833Z" stroke="#E7E6E6" stroke-width="1.33333" stroke-miterlimit="8" fill="#FFC569" fill-rule="evenodd"/><text font-family="Calibri,Calibri_MSFontService,sans-serif" font-weight="400" font-size="19" transform="translate(561.373 556)">The Body &amp; The Writer<tspan font-size="13" x="-135.373" y="18">Anatomical, physiological, emotional / Joyce’s writing and personal incorporations</tspan></text></g></svg>